<svg width="34" height="23" viewBox="0 0 34 23" fill="none" xmlns="http://www.w3.org/2000/svg">
<rect x="0.5" y="0.5" width="19" height="19" rx="0.5" stroke="#FFFFFE" stroke-linejoin="round"/>
<path d="M16 3.5L0.5 0.5V19.5L16 22.5V3.5Z" fill="#FFFFFE" stroke="#FFFFFE" stroke-linejoin="round"/>
<path fill-rule="evenodd" clip-rule="evenodd" d="M25.8284 12.0711H18V8.07107H25.8284L22.8787 5.12132C22.4881 4.7308 22.4881 4.09763 22.8787 3.70711L24.2929 2.2929C24.6834 1.90237 25.3166 1.90237 25.7071 2.2929L30.6568 7.24264L32.7782 9.36396C33.1687 9.75449 33.1687 10.3877 32.7782 10.7782L30.6568 12.8995L25.7071 17.8492C25.3166 18.2398 24.6834 18.2398 24.2929 17.8492L22.8787 16.435C22.4881 16.0445 22.4881 15.4113 22.8787 15.0208L25.8284 12.0711Z" fill="#FFFFFE"/>
</svg>
