<svg width="19" height="19" viewBox="0 0 19 19" fill="none" xmlns="http://www.w3.org/2000/svg">
<path fill-rule="evenodd" clip-rule="evenodd" d="M16.486 0.929646C16.0955 0.539123 15.4623 0.539122 15.0718 0.929647L9.55634 6.44508L4.0409 0.929646C3.65038 0.539122 3.01721 0.539122 2.62669 0.929646L0.929634 2.6267C0.539109 3.01723 0.539109 3.65039 0.929633 4.04092L6.44507 9.55635L0.929633 15.0718C0.539109 15.4623 0.539109 16.0955 0.929633 16.486L2.62669 18.1831C3.01721 18.5736 3.65038 18.5736 4.0409 18.1831L9.55634 12.6676L15.0718 18.1831C15.4623 18.5736 16.0955 18.5736 16.486 18.1831L18.183 16.486C18.5736 16.0955 18.5736 15.4623 18.183 15.0718L12.6676 9.55635L18.183 4.04092C18.5736 3.65039 18.5736 3.01723 18.183 2.6267L16.486 0.929646Z" fill="#FFFFFE"/>
</svg>
